<svg width="159" height="157" viewBox="0 0 159 157" fill="none" xmlns="http://www.w3.org/2000/svg">
<path fill-rule="evenodd" clip-rule="evenodd" d="M134.489 55.6829C134.489 70.5127 122.47 82.5346 107.644 82.5346C92.8177 82.5346 80.7988 70.5127 80.7988 55.6829C80.7988 40.8532 92.8177 28.8313 107.644 28.8313C122.47 28.8313 134.489 40.8532 134.489 55.6829Z" stroke="#231815" stroke-width="2"/>
<line x1="155.453" y1="54.2419" x2="142.81" y2="54.2419" stroke="#F25022" stroke-width="2" stroke-linecap="round" stroke-linejoin="round"/>
<line x1="72.4774" y1="54.2419" x2="59.8347" y2="54.2419" stroke="#F25022" stroke-width="2" stroke-linecap="round" stroke-linejoin="round"/>
<line x1="155.453" y1="54.2419" x2="142.81" y2="54.2419" stroke="#231815" stroke-width="2" stroke-linecap="round" stroke-linejoin="round"/>
<line x1="72.4774" y1="54.2419" x2="59.8347" y2="54.2419" stroke="#231815" stroke-width="2" stroke-linecap="round" stroke-linejoin="round"/>
<g clip-path="url(#clip0)">
<line x1="1" y1="-1" x2="13.6436" y2="-1" transform="matrix(-0.865972 -0.500093 0.499907 -0.866079 151.134 77.9795)" stroke="#231815" stroke-width="2" stroke-linecap="round" stroke-linejoin="round"/>
</g>
<g clip-path="url(#clip1)">
<line x1="1" y1="-1" x2="13.6454" y2="-1" transform="matrix(-0.499907 -0.866079 0.865972 -0.500093 134.162 96.7427)" stroke="#231815" stroke-width="2" stroke-linecap="round" stroke-linejoin="round"/>
</g>
<g clip-path="url(#clip2)">
<line x1="1" y1="-1" x2="13.6454" y2="-1" transform="matrix(-0.499907 -0.866079 0.865972 -0.500093 92.6742 24.866)" stroke="#231815" stroke-width="2" stroke-linecap="round" stroke-linejoin="round"/>
</g>
<g clip-path="url(#clip3)">
<line x1="109.084" y1="103.504" x2="109.084" y2="90.8576" stroke="#231815" stroke-width="2" stroke-linecap="round" stroke-linejoin="round"/>
</g>
<g clip-path="url(#clip4)">
<line x1="109.084" y1="20.5081" x2="109.084" y2="7.86171" stroke="#231815" stroke-width="2" stroke-linecap="round" stroke-linejoin="round"/>
</g>
<g clip-path="url(#clip5)">
<line x1="1" y1="-1" x2="13.6454" y2="-1" transform="matrix(0.499907 -0.866079 0.865972 0.500093 85.3528 99.1838)" stroke="#231815" stroke-width="2" stroke-linecap="round" stroke-linejoin="round"/>
</g>
<g clip-path="url(#clip6)">
<line x1="1" y1="-1" x2="13.6454" y2="-1" transform="matrix(0.499907 -0.866079 0.865972 0.500093 126.841 27.3071)" stroke="#231815" stroke-width="2" stroke-linecap="round" stroke-linejoin="round"/>
</g>
<g clip-path="url(#clip7)">
<line x1="1" y1="-1" x2="13.6436" y2="-1" transform="matrix(0.865972 -0.500093 0.499907 0.866079 66.5942 82.2075)" stroke="#231815" stroke-width="2" stroke-linecap="round" stroke-linejoin="round"/>
</g>
<g clip-path="url(#clip8)">
<line x1="1" y1="-1" x2="13.6436" y2="-1" transform="matrix(0.865972 -0.500093 0.499907 0.866079 138.453 40.7095)" stroke="#231815" stroke-width="2" stroke-linecap="round" stroke-linejoin="round"/>
</g>
<path d="M132.048 55.683C132.048 69.1646 121.122 80.0936 107.644 80.0936C94.1655 80.0936 83.2393 69.1646 83.2393 55.683C83.2393 42.2014 94.1655 31.2725 107.644 31.2725C121.122 31.2725 132.048 42.2014 132.048 55.683Z" fill="#FFB900"/>
<path fill-rule="evenodd" clip-rule="evenodd" d="M110.288 68.9105C110.288 68.9105 110.888 71.9568 111.093 71.9859C122.136 73.5611 130.421 80.0041 130.421 91.4852C130.421 104.068 120.223 114.268 107.644 114.268H49.0728C36.4931 114.268 26.2953 104.068 26.2953 91.4852C26.2953 80.0041 34.7855 70.5065 45.8286 68.9314C46.0332 68.9022 46.2336 68.896 46.4282 68.9105C49.362 53.9505 62.5424 42.6641 78.3583 42.6641C94.1741 42.6641 107.354 53.9505 110.288 68.9105Z" fill="#F3F3F3"/>
<path d="M50.7955 114.268C37.2644 114.268 26.2953 103.582 26.2953 90.4003C26.2953 78.8864 34.6638 69.2768 45.7987 67.029C49.6265 53.0006 62.7533 42.6641 78.3583 42.6641C95.9995 42.6641 110.474 55.8742 111.926 72.6943C122.374 74.0915 130.421 82.8221 130.421 93.3838C130.421 104.918 120.823 114.268 108.984 114.268H50.7955Z" stroke="#231815" stroke-width="2" stroke-linecap="round" stroke-linejoin="round"/>
<defs>
<clipPath id="clip0">
<rect width="19.5248" height="9.76362" rx="4.88181" transform="matrix(0.865972 0.500093 -0.499907 0.866079 137.56 67.3218)" fill="white"/>
</clipPath>
<clipPath id="clip1">
<rect width="19.5273" height="9.76242" rx="4.88121" transform="matrix(0.499907 0.866079 -0.865972 0.500093 127.734 80.7241)" fill="white"/>
</clipPath>
<clipPath id="clip2">
<rect width="19.5272" height="9.76241" rx="4.88121" transform="matrix(0.499907 0.866079 -0.865972 0.500093 86.2461 8.84741)" fill="white"/>
</clipPath>
<clipPath id="clip3">
<rect x="112.525" y="87.4165" width="19.5285" height="9.76181" rx="4.8809" transform="rotate(90 112.525 87.4165)" fill="white"/>
</clipPath>
<clipPath id="clip4">
<rect x="112.525" y="4.42065" width="19.5285" height="9.76181" rx="4.8809" transform="rotate(90 112.525 4.42065)" fill="white"/>
</clipPath>
<clipPath id="clip5">
<rect width="19.5273" height="9.76241" rx="4.88121" transform="matrix(-0.499907 0.866079 -0.865972 -0.500093 96.0078 85.6062)" fill="white"/>
</clipPath>
<clipPath id="clip6">
<rect width="19.5272" height="9.76241" rx="4.88121" transform="matrix(-0.499907 0.866079 -0.865972 -0.500093 137.496 13.7295)" fill="white"/>
</clipPath>
<clipPath id="clip7">
<rect width="19.5248" height="9.76363" rx="4.88181" transform="matrix(-0.865972 0.500093 -0.499907 -0.866079 82.6089 75.7778)" fill="white"/>
</clipPath>
<clipPath id="clip8">
<rect width="19.5248" height="9.76363" rx="4.88181" transform="matrix(-0.865972 0.500093 -0.499907 -0.866079 154.468 34.2798)" fill="white"/>
</clipPath>
</defs>
</svg>
