<svg width="50" height="50" viewBox="0 0 50 50" fill="none" xmlns="http://www.w3.org/2000/svg">
<path fill-rule="evenodd" clip-rule="evenodd" d="M35.2218 21.9417C35.2218 21.9417 35.4137 22.9166 35.4792 22.9259C39.0144 23.4301 41.6668 25.4921 41.6668 29.1666C41.6668 33.1937 38.4022 36.4583 34.3752 36.4583H15.6252C11.5981 36.4583 8.3335 33.1937 8.3335 29.1666C8.3335 25.4921 11.0514 22.4524 14.5866 21.9483C14.6521 21.939 14.7163 21.937 14.7785 21.9417C15.7177 17.1538 19.9371 13.5416 25.0002 13.5416C30.0632 13.5416 34.2826 17.1538 35.2218 21.9417Z" fill="#F3F3F3"/>
<path d="M16.1766 36.4583C11.845 36.4583 8.3335 33.0382 8.3335 28.8194C8.3335 25.1344 11.0125 22.0589 14.577 21.3395C15.8024 16.8498 20.0046 13.5416 25.0002 13.5416C30.6475 13.5416 35.2811 17.7694 35.7461 23.1527C39.0906 23.5998 41.6668 26.394 41.6668 29.7742C41.6668 33.4657 38.5943 36.4583 34.8041 36.4583H16.1766Z" stroke="#231815" stroke-width="2" stroke-linecap="round" stroke-linejoin="round"/>
</svg>
