<svg width="158" height="157" viewBox="0 0 158 157" fill="none" xmlns="http://www.w3.org/2000/svg">
<path fill-rule="evenodd" clip-rule="evenodd" d="M111.005 68.9105C111.005 68.9105 111.605 71.9568 111.809 71.9859C122.852 73.5611 131.138 80.0041 131.138 91.4852C131.138 104.068 120.94 114.268 108.36 114.268H49.7894C37.2097 114.268 27.0118 104.068 27.0118 91.4852C27.0118 80.0041 35.5021 70.5065 46.5451 68.9314C46.7497 68.9022 46.9502 68.896 47.1448 68.9105C50.0786 53.9505 63.259 42.6641 79.0748 42.6641C94.8906 42.6641 108.071 53.9505 111.005 68.9105Z" fill="#F3F3F3"/>
<path d="M51.5121 114.268C37.981 114.268 27.0118 103.582 27.0118 90.4003C27.0118 78.8864 35.3804 69.2768 46.5152 67.029C50.3431 53.0006 63.4699 42.6641 79.0748 42.6641C96.716 42.6641 111.19 55.8742 112.643 72.6943C123.09 74.0915 131.138 82.8221 131.138 93.3838C131.138 104.918 121.54 114.268 109.7 114.268H51.5121Z" stroke="#231815" stroke-width="2" stroke-linecap="round" stroke-linejoin="round"/>
</svg>
