<svg width="157" height="157" viewBox="0 0 157 157" fill="none" xmlns="http://www.w3.org/2000/svg">
<path fill-rule="evenodd" clip-rule="evenodd" d="M76.5818 26.5637C85.5245 26.5637 92.774 33.7563 92.774 42.6288V83.6814C101.599 89.0756 107.494 98.7533 107.494 109.81C107.494 126.748 93.6543 140.48 76.5818 140.48C59.5094 140.48 45.6694 126.748 45.6694 109.81C45.6694 98.7533 51.5649 89.0756 60.3896 83.6814V42.6288C60.3896 33.7563 67.6391 26.5637 76.5818 26.5637ZM67.7497 88.1412C59.1183 91.6077 53.0295 100.003 53.0295 109.81C53.0295 122.715 63.5743 133.177 76.5818 133.177C89.5894 133.177 100.134 122.715 100.134 109.81C100.134 100.003 94.0454 91.6077 85.4139 88.1412V42.6288C85.4139 37.7893 81.4597 33.866 76.5818 33.866C71.704 33.866 67.7497 37.7893 67.7497 42.6288V88.1412Z" fill="#231815"/>
<path d="M96.1053 109.56C96.1053 120.345 87.3643 129.088 76.5817 129.088C65.7991 129.088 57.0581 120.345 57.0581 109.56C57.0581 98.7743 65.7991 90.0311 76.5817 90.0311C87.3643 90.0311 96.1053 98.7743 96.1053 109.56Z" fill="#00A4EF"/>
<path d="M81.4626 80.2669C81.4626 77.5706 79.2774 75.3848 76.5817 75.3848C73.8861 75.3848 71.7008 77.5706 71.7008 80.2669V103.05C71.7008 105.746 73.8861 107.932 76.5817 107.932C79.2774 107.932 81.4626 105.746 81.4626 103.05V80.2669Z" fill="#00A4EF"/>
</svg>
