<svg width="157" height="157" viewBox="0 0 157 157" fill="none" xmlns="http://www.w3.org/2000/svg">
<path fill-rule="evenodd" clip-rule="evenodd" d="M110.288 69.2521C110.288 69.2521 110.888 72.2983 111.093 72.3275C122.136 73.9026 130.421 80.3457 130.421 91.8268C130.421 104.41 120.223 114.61 107.644 114.61H49.0728C36.4931 114.61 26.2953 104.41 26.2953 91.8268C26.2953 80.3457 34.7855 70.848 45.8286 69.2729C46.0332 69.2437 46.2336 69.2375 46.4282 69.2521C49.362 54.2921 62.5424 43.0056 78.3583 43.0056C94.1741 43.0056 107.354 54.2921 110.288 69.2521Z" fill="#F3F3F3"/>
<path d="M107.644 114.61H108.984C120.823 114.61 130.421 105.26 130.421 93.7254C130.421 83.1636 122.374 74.4331 111.926 73.0359C110.474 56.2157 95.9995 43.0056 78.3583 43.0056C62.7533 43.0056 49.6265 53.3422 45.7987 67.3705C34.6638 69.6183 26.2953 79.228 26.2953 90.7418C26.2953 103.36 36.3455 113.691 49.0728 114.552" stroke="#231815" stroke-width="2" stroke-linecap="round" stroke-linejoin="round"/>
<path d="M68.5964 112.983C68.5964 115.679 66.4111 117.865 63.7155 117.865C61.0199 117.865 58.8346 115.679 58.8346 112.983C58.8346 110.286 61.0199 108.1 63.7155 108.1C66.4111 108.1 68.5964 110.286 68.5964 112.983Z" fill="#231815"/>
<path d="M83.2391 119.492C83.2391 122.188 81.0539 124.374 78.3582 124.374C75.6626 124.374 73.4773 122.188 73.4773 119.492C73.4773 116.796 75.6626 114.61 78.3582 114.61C81.0539 114.61 83.2391 116.796 83.2391 119.492Z" fill="#231815"/>
<path d="M83.2391 103.218C83.2391 105.915 81.0539 108.1 78.3582 108.1C75.6626 108.1 73.4773 105.915 73.4773 103.218C73.4773 100.522 75.6626 98.3362 78.3582 98.3362C81.0539 98.3362 83.2391 100.522 83.2391 103.218Z" fill="#231815"/>
<path d="M97.8818 112.983C97.8818 115.679 95.6966 117.865 93.0009 117.865C90.3053 117.865 88.12 115.679 88.12 112.983C88.12 110.286 90.3053 108.1 93.0009 108.1C95.6966 108.1 97.8818 110.286 97.8818 112.983Z" fill="#231815"/>
<path d="M68.5964 126.001C68.5964 128.698 66.4111 130.884 63.7155 130.884C61.0199 130.884 58.8346 128.698 58.8346 126.001C58.8346 123.305 61.0199 121.119 63.7155 121.119C66.4111 121.119 68.5964 123.305 68.5964 126.001Z" fill="#231815"/>
<path d="M97.8818 126.001C97.8818 128.698 95.6966 130.884 93.0009 130.884C90.3053 130.884 88.12 128.698 88.12 126.001C88.12 123.305 90.3053 121.119 93.0009 121.119C95.6966 121.119 97.8818 123.305 97.8818 126.001Z" fill="#231815"/>
</svg>
