<svg width="23" height="19" viewBox="0 0 23 19" fill="none" xmlns="http://www.w3.org/2000/svg">
<path d="M22.2656 9.1875L20 7.3125V3.5625C20 3.40625 19.8438 3.25 19.6875 3.25H18.4375C18.2422 3.28906 18.125 3.40625 18.125 3.5625V5.78906L12.6172 1.25781C12.3047 0.984375 11.6797 0.789062 11.25 0.789062C10.7812 0.789062 10.1562 0.984375 9.84375 1.25781L0.195312 9.1875C0.078125 9.30469 0 9.5 0 9.65625C0 9.77344 0.0390625 9.96875 0.117188 10.0469L0.546875 10.5547C0.625 10.6719 0.859375 10.75 1.01562 10.75C1.13281 10.75 1.32812 10.7109 1.40625 10.6328L2.5 9.73438V17C2.5 17.7031 3.04688 18.25 3.75 18.25H8.75C9.41406 18.25 9.96094 17.7031 10 17V12.9375H12.5V17C12.5 17.7031 13.0469 18.25 13.75 18.25H18.75C19.4141 18.25 19.9609 17.7031 20 17.0391V9.73438L21.0547 10.6328C21.1328 10.7109 21.3281 10.7891 21.4453 10.7891C21.6016 10.7891 21.8359 10.6719 21.9531 10.5547L22.3438 10.0469C22.4219 9.96875 22.5 9.77344 22.5 9.65625C22.5 9.5 22.3828 9.30469 22.2656 9.1875ZM18.0859 16.375H14.375V12.3125C14.3359 11.6484 13.7891 11.1016 13.125 11.0625H9.375C8.67188 11.1016 8.125 11.6484 8.125 12.3125V16.375H4.375V8.21094L11.25 2.54688L18.125 8.21094L18.0859 16.375Z" fill="black"/>
</svg>
