<svg width="158" height="157" viewBox="0 0 158 157" fill="none" xmlns="http://www.w3.org/2000/svg">
<path fill-rule="evenodd" clip-rule="evenodd" d="M77.2981 26.5637C86.2409 26.5637 93.4903 33.7563 93.4903 42.6288V83.6814C102.315 89.0756 108.211 98.7533 108.211 109.81C108.211 126.748 94.3706 140.48 77.2981 140.48C60.2257 140.48 46.3857 126.748 46.3857 109.81C46.3857 98.7533 52.2812 89.0756 61.1059 83.6814V42.6288C61.1059 33.7563 68.3554 26.5637 77.2981 26.5637ZM68.466 88.1412C59.8346 91.6077 53.7458 100.003 53.7458 109.81C53.7458 122.715 64.2906 133.177 77.2981 133.177C90.3057 133.177 100.85 122.715 100.85 109.81C100.85 100.003 94.7617 91.6077 86.1303 88.1412V42.6288C86.1303 37.7893 82.176 33.866 77.2981 33.866C72.4203 33.866 68.466 37.7893 68.466 42.6288V88.1412Z" fill="#231815"/>
<path fill-rule="evenodd" clip-rule="evenodd" d="M77.298 42.8374C79.9937 42.8374 82.1789 45.0227 82.1789 47.7183V90.6464C90.5996 92.8143 96.8217 100.46 96.8217 109.56C96.8217 120.345 88.0806 129.088 77.298 129.088C66.5154 129.088 57.7744 120.345 57.7744 109.56C57.7744 100.46 63.9965 92.8143 72.4171 90.6464V47.7183C72.4171 45.0227 74.6024 42.8374 77.298 42.8374Z" fill="#F25022"/>
</svg>
