<svg width="157" height="157" viewBox="0 0 157 157" fill="none" xmlns="http://www.w3.org/2000/svg">
<path fill-rule="evenodd" clip-rule="evenodd" d="M110.721 69.0841C110.721 69.0841 111.321 72.1303 111.526 72.1595C122.569 73.7347 130.854 80.1777 130.854 91.6588C130.854 104.242 120.657 114.442 108.077 114.442H49.506C36.9263 114.442 26.7284 104.242 26.7284 91.6588C26.7284 80.1777 35.2187 70.6801 46.2617 69.1049C46.4663 69.0758 46.6668 69.0695 46.8613 69.0841C49.7952 54.1241 62.9755 42.8376 78.7914 42.8376C94.6072 42.8376 107.788 54.1241 110.721 69.0841Z" fill="#F3F3F3"/>
<path d="M108.077 114.442H109.417C121.256 114.442 130.854 105.092 130.854 93.5574C130.854 82.9957 122.807 74.2651 112.359 72.8679C110.907 56.0478 96.4326 42.8376 78.7914 42.8376C63.1864 42.8376 50.0596 53.1742 46.2318 67.2026C35.0969 69.4503 26.7284 79.06 26.7284 90.5739C26.7284 103.192 36.7786 113.523 49.506 114.384" stroke="#231815" stroke-width="2" stroke-linecap="round" stroke-linejoin="round"/>
<path fill-rule="evenodd" clip-rule="evenodd" d="M91.8072 91.6587C86.4159 91.6587 82.0453 96.0303 82.0453 101.423V102.311C82.0453 104.108 83.5022 105.565 85.2993 105.565C87.0964 105.565 88.5532 104.108 88.5532 102.311V101.423C88.5532 99.6254 90.0101 98.1682 91.8072 98.1682C93.6043 98.1682 95.0611 99.6254 95.0611 101.423V103.05C95.0611 105.747 92.8758 107.932 90.1802 107.932H86.9263C85.1292 107.932 83.6723 109.39 83.6723 111.187C83.6723 112.985 85.1292 114.442 86.9263 114.442H90.1802C96.47 114.442 101.569 109.342 101.569 103.05V101.423C101.569 96.0303 97.1985 91.6587 91.8072 91.6587ZM93.4341 143.735C87.1443 143.735 82.0453 138.634 82.0453 132.343V130.716C82.0453 128.918 83.5022 127.461 85.2993 127.461C87.0964 127.461 88.5532 128.918 88.5532 130.716V132.343C88.5532 135.039 90.7385 137.225 93.4341 137.225C96.1298 137.225 98.315 135.039 98.315 132.343V130.716C98.315 127.121 95.4014 124.206 91.8072 124.206H78.7914C76.9943 124.206 75.5375 122.749 75.5375 120.951C75.5375 119.154 76.9943 117.697 78.7914 117.697H91.8072C98.9956 117.697 104.823 123.525 104.823 130.716V132.343C104.823 138.634 99.724 143.735 93.4341 143.735Z" fill="#231815"/>
<path d="M81.983 108.542C81.8488 108.153 81.5162 107.871 81.1204 107.813L69.0123 106.017L74.5669 93.2269C74.7153 92.8826 74.6858 92.4832 74.4862 92.1661C74.2877 91.8499 73.9464 91.6587 73.5812 91.6587H56.6719C56.0907 91.6587 55.6142 92.1334 55.5936 92.7318L54.815 115.462C54.7953 116.03 55.1944 116.522 55.7397 116.603L64.1577 117.853L52.8947 138.828C52.6308 139.322 52.7649 139.94 53.2077 140.271C53.3985 140.412 53.6187 140.48 53.8389 140.48C54.1311 140.48 54.4212 140.357 54.6327 140.12L81.7615 109.668C82.0319 109.364 82.117 108.931 81.983 108.542Z" fill="#FFB900"/>
</svg>
