<svg width="30" height="31" viewBox="0 0 30 31" fill="none" xmlns="http://www.w3.org/2000/svg">
<path d="M15 26.5764C13.4212 25.2297 11.9577 23.7533 10.625 22.1627C8.625 19.7739 6.25 16.2164 6.25 12.8264C6.24823 9.28585 8.38031 6.09316 11.6513 4.73816C14.9224 3.38317 18.6876 4.13297 21.19 6.63767C22.8356 8.27593 23.7574 10.5044 23.75 12.8264C23.75 16.2164 21.375 19.7739 19.375 22.1627C18.0423 23.7533 16.5788 25.2297 15 26.5764ZM15 6.57642C11.5499 6.58055 8.75414 9.37635 8.75 12.8264C8.75 14.2839 9.40875 16.8077 12.5438 20.5589C13.3164 21.4815 14.1363 22.3635 15 23.2014C15.8638 22.3645 16.6841 21.4837 17.4575 20.5627C20.5913 16.8064 21.25 14.2827 21.25 12.8264C21.2459 9.37635 18.4501 6.58055 15 6.57642ZM15 16.5764C12.9289 16.5764 11.25 14.8975 11.25 12.8264C11.25 10.7553 12.9289 9.07642 15 9.07642C17.0711 9.07642 18.75 10.7553 18.75 12.8264C18.75 13.821 18.3549 14.7748 17.6517 15.4781C16.9484 16.1813 15.9946 16.5764 15 16.5764Z" fill="black"/>
</svg>
