<svg width="158" height="157" viewBox="0 0 158 157" fill="none" xmlns="http://www.w3.org/2000/svg">
<path fill-rule="evenodd" clip-rule="evenodd" d="M73.5871 48.5161C73.5871 48.5161 74.0368 50.8008 74.1903 50.8227C82.4725 52.0041 88.6868 56.8363 88.6868 65.4472C88.6868 74.8843 81.0384 82.5346 71.6036 82.5346H27.6755C18.2407 82.5346 10.5923 74.8843 10.5923 65.4472C10.5923 56.8363 16.96 49.7131 25.2422 48.5318C25.3957 48.5099 25.5461 48.5052 25.692 48.5161C27.8924 37.2962 37.7776 28.8313 49.6395 28.8313C61.5014 28.8313 71.3867 37.2962 73.5871 48.5161Z" fill="#F3F3F3"/>
<path d="M28.9675 82.5346C18.8191 82.5346 10.5923 74.52 10.5923 64.6335C10.5923 55.9981 16.8687 48.7908 25.2198 47.105C28.0907 36.5837 37.9358 28.8313 49.6395 28.8313C62.8704 28.8313 73.726 38.7389 74.8155 51.354C82.651 52.4019 88.6868 58.9498 88.6868 66.8711C88.6868 75.5218 81.4883 82.5346 72.6085 82.5346H28.9675Z" stroke="#231815" stroke-width="2" stroke-linecap="round" stroke-linejoin="round"/>
<path fill-rule="evenodd" clip-rule="evenodd" d="M110.855 68.9105C110.855 68.9105 111.455 71.9568 111.659 71.9859C122.702 73.5611 130.988 80.0041 130.988 91.4852C130.988 104.068 120.79 114.268 108.21 114.268H49.6396C37.0599 114.268 26.8621 104.068 26.8621 91.4852C26.8621 80.0041 35.3523 70.5065 46.3953 68.9314C46.6 68.9022 46.8004 68.896 46.995 68.9105C49.9288 53.9505 63.1092 42.6641 78.925 42.6641C94.7409 42.6641 107.921 53.9505 110.855 68.9105Z" fill="#F3F3F3"/>
<path d="M51.3623 114.268C37.8312 114.268 26.8621 103.582 26.8621 90.4003C26.8621 78.8864 35.2306 69.2768 46.3654 67.029C50.1933 53.0006 63.3201 42.6641 78.925 42.6641C96.5662 42.6641 111.04 55.8742 112.493 72.6943C122.94 74.0915 130.988 82.8221 130.988 93.3838C130.988 104.918 121.39 114.268 109.55 114.268H51.3623Z" stroke="#231815" stroke-width="2" stroke-linecap="round" stroke-linejoin="round"/>
</svg>
