<svg width="157" height="157" viewBox="0 0 157 157" fill="none" xmlns="http://www.w3.org/2000/svg">
<path fill-rule="evenodd" clip-rule="evenodd" d="M110.025 68.5582C110.025 68.5582 110.624 71.6045 110.829 71.6336C121.872 73.2088 130.157 79.6518 130.157 91.1329C130.157 103.716 119.96 113.916 107.38 113.916H48.809C36.2294 113.916 26.0315 103.716 26.0315 91.1329C26.0315 79.6518 34.5218 70.1542 45.5648 68.5791C45.7694 68.5499 45.9699 68.5437 46.1644 68.5582C49.0983 53.5983 62.2786 42.3118 78.0945 42.3118C93.9103 42.3118 107.091 53.5983 110.025 68.5582Z" fill="#F3F3F3"/>
<path d="M107.38 113.916H108.72C120.559 113.916 130.157 104.566 130.157 93.0315C130.157 82.4698 122.11 73.7392 111.662 72.3421C110.21 55.5219 95.7357 42.3118 78.0945 42.3118C62.4895 42.3118 49.3627 52.6483 45.5349 66.6767C34.4 68.9245 26.0315 78.5342 26.0315 90.048C26.0315 102.666 36.0817 112.997 48.8091 113.858" stroke="#231815" stroke-width="2" stroke-linecap="round" stroke-linejoin="round"/>
<path d="M58.571 122.691L66.7059 108.598M74.8407 119.437L82.9756 105.343M87.8565 125.946L95.9913 111.853" stroke="#2F80ED" stroke-width="2" stroke-linecap="round" stroke-linejoin="round"/>
</svg>
