<svg width="158" height="157" viewBox="0 0 158 157" fill="none" xmlns="http://www.w3.org/2000/svg">
<path fill-rule="evenodd" clip-rule="evenodd" d="M110.855 69.2521C110.855 69.2521 111.455 72.2983 111.659 72.3275C122.702 73.9026 130.988 80.3457 130.988 91.8268C130.988 104.41 120.79 114.61 108.21 114.61H49.6396C37.0599 114.61 26.8621 104.41 26.8621 91.8268C26.8621 80.3457 35.3523 70.848 46.3953 69.2729C46.6 69.2437 46.8004 69.2375 46.995 69.2521C49.9288 54.2921 63.1092 43.0056 78.925 43.0056C94.7409 43.0056 107.921 54.2921 110.855 69.2521Z" fill="#F3F3F3"/>
<path d="M108.21 114.61H109.55C121.39 114.61 130.988 105.26 130.988 93.7254C130.988 83.1636 122.94 74.4331 112.493 73.0359C111.04 56.2157 96.5662 43.0056 78.925 43.0056C63.3201 43.0056 50.1933 53.3422 46.3654 67.3705C35.2306 69.6183 26.8621 79.228 26.8621 90.7418C26.8621 103.36 36.9123 113.691 49.6396 114.552" stroke="#231815" stroke-width="2" stroke-linecap="round" stroke-linejoin="round"/>
<path fill-rule="evenodd" clip-rule="evenodd" d="M84.9972 118.448C83.4408 117.55 83.029 115.349 84.0773 113.533L91.6698 100.379C92.7181 98.5626 94.8296 97.8189 96.3859 98.7176C97.9423 99.6164 98.3541 101.817 97.3058 103.633L89.7133 116.787C88.665 118.604 86.5535 119.347 84.9972 118.448Z" fill="#231815"/>
<path fill-rule="evenodd" clip-rule="evenodd" d="M88.2511 134.722C86.6948 133.823 86.2829 131.623 87.3312 129.806L94.9238 116.652C95.9721 114.836 98.0835 114.093 99.6399 114.991C101.196 115.89 101.608 118.091 100.56 119.907L92.9672 133.061C91.9189 134.877 89.8074 135.621 88.2511 134.722Z" fill="#231815"/>
<path d="M66.7993 106.448C66.7993 104.875 68.0741 103.6 69.6465 103.6C71.219 103.6 72.4937 104.875 72.4937 106.448V110.059L75.6202 108.253C76.9819 107.467 78.7233 107.933 79.5095 109.296C80.2957 110.658 79.8291 112.399 78.4673 113.186L75.3409 114.991L78.4673 116.797C79.8291 117.583 80.2957 119.325 79.5095 120.687C78.7233 122.049 76.9819 122.516 75.6201 121.73L72.4937 119.924V123.535C72.4937 125.108 71.219 126.383 69.6465 126.383C68.0741 126.383 66.7993 125.108 66.7993 123.535V119.924L63.6729 121.73C62.3111 122.516 60.5698 122.049 59.7835 120.687C58.9973 119.325 59.4639 117.583 60.8257 116.797L63.9521 114.991L60.8257 113.186C59.4639 112.399 58.9973 110.658 59.7835 109.296C60.5698 107.933 62.3111 107.467 63.6729 108.253L66.7993 110.059V106.448Z" fill="#231815"/>
</svg>
