<svg width="157" height="157" viewBox="0 0 157 157" fill="none" xmlns="http://www.w3.org/2000/svg">
<path fill-rule="evenodd" clip-rule="evenodd" d="M110.572 69.2521C110.572 69.2521 111.172 72.2983 111.376 72.3275C122.419 73.9026 130.705 80.3457 130.705 91.8268C130.705 104.41 120.507 114.61 107.927 114.61H49.3564C36.7767 114.61 26.5789 104.41 26.5789 91.8268C26.5789 80.3457 35.0691 70.848 46.1121 69.2729C46.3168 69.2437 46.5172 69.2375 46.7118 69.2521C49.6456 54.2921 62.826 43.0056 78.6418 43.0056C94.4577 43.0056 107.638 54.2921 110.572 69.2521Z" fill="#F3F3F3"/>
<path d="M107.927 114.61H109.267C121.107 114.61 130.705 105.26 130.705 93.7254C130.705 83.1636 122.657 74.4331 112.21 73.0359C110.757 56.2157 96.283 43.0056 78.6418 43.0056C63.0369 43.0056 49.9101 53.3422 46.0822 67.3705C34.9474 69.6183 26.5789 79.228 26.5789 90.7418C26.5789 103.36 36.6291 113.691 49.3564 114.552" stroke="#231815" stroke-width="2" stroke-linecap="round" stroke-linejoin="round"/>
<path d="M63.2617 94.6746C63.2617 93.1017 64.5365 91.8267 66.1089 91.8267C67.6814 91.8267 68.9561 93.1017 68.9561 94.6746V98.2855L72.0826 96.4801C73.4443 95.6936 75.1857 96.1603 75.9719 97.5225C76.7581 98.8846 76.2915 100.626 74.9298 101.413L71.8033 103.218L74.9297 105.024C76.2915 105.81 76.7581 107.552 75.9719 108.914C75.1857 110.276 73.4443 110.743 72.0825 109.956L68.9561 108.151V111.762C68.9561 113.335 67.6814 114.61 66.1089 114.61C64.5365 114.61 63.2617 113.335 63.2617 111.762V108.151L60.1353 109.956C58.7735 110.743 57.0322 110.276 56.246 108.914C55.4597 107.552 55.9263 105.81 57.2881 105.024L60.4145 103.218L57.2881 101.413C55.9263 100.626 55.4597 98.8846 56.2459 97.5225C57.0322 96.1603 58.7735 95.6936 60.1353 96.4801L63.2617 98.2856V94.6746Z" fill="#231815"/>
<path d="M89.2932 101.184C89.2932 99.6112 90.568 98.3361 92.1404 98.3361C93.7129 98.3361 94.9876 99.6112 94.9876 101.184V104.795L98.1141 102.99C99.4758 102.203 101.217 102.67 102.003 104.032C102.79 105.394 102.323 107.136 100.961 107.922L97.8348 109.728L100.961 111.533C102.323 112.32 102.79 114.061 102.003 115.424C101.217 116.786 99.4758 117.252 98.114 116.466L94.9876 114.66V118.271C94.9876 119.844 93.7129 121.119 92.1404 121.119C90.568 121.119 89.2932 119.844 89.2932 118.271V114.66L86.1668 116.466C84.805 117.252 83.0637 116.786 82.2774 115.424C81.4912 114.061 81.9578 112.32 83.3196 111.533L86.446 109.728L83.3196 107.922C81.9578 107.136 81.4912 105.394 82.2774 104.032C83.0637 102.67 84.805 102.203 86.1668 102.99L89.2932 104.795V101.184Z" fill="#231815"/>
<path d="M69.7696 119.085C69.7696 117.512 71.0444 116.237 72.6168 116.237C74.1893 116.237 75.464 117.512 75.464 119.085V122.696L78.5904 120.891C79.9522 120.104 81.6935 120.571 82.4798 121.933C83.266 123.295 82.7994 125.037 81.4376 125.823L78.3112 127.629L81.4376 129.434C82.7994 130.221 83.266 131.963 82.4798 133.325C81.6935 134.687 79.9522 135.153 78.5904 134.367L75.464 132.562V136.173C75.464 137.745 74.1893 139.02 72.6168 139.02C71.0444 139.02 69.7696 137.745 69.7696 136.173V132.562L66.6432 134.367C65.2814 135.153 63.5401 134.687 62.7538 133.325C61.9676 131.963 62.4342 130.221 63.796 129.434L66.9224 127.629L63.796 125.823C62.4342 125.037 61.9676 123.295 62.7538 121.933C63.54 120.571 65.2814 120.104 66.6432 120.891L69.7696 122.696V119.085Z" fill="#231815"/>
</svg>
