<svg width="157" height="157" viewBox="0 0 157 157" fill="none" xmlns="http://www.w3.org/2000/svg">
<path fill-rule="evenodd" clip-rule="evenodd" d="M110.139 69.2521C110.139 69.2521 110.738 72.2983 110.943 72.3275C121.986 73.9026 130.272 80.3457 130.272 91.8268C130.272 104.41 120.074 114.61 107.494 114.61H48.9233C36.3436 114.61 26.1458 104.41 26.1458 91.8268C26.1458 80.3457 34.636 70.848 45.679 69.2729C45.8837 69.2437 46.0841 69.2375 46.2787 69.2521C49.2125 54.2921 62.3929 43.0056 78.2087 43.0056C94.0246 43.0056 107.205 54.2921 110.139 69.2521Z" fill="#F3F3F3"/>
<path d="M107.494 114.61H108.834C120.674 114.61 130.272 105.26 130.272 93.7254C130.272 83.1636 122.224 74.4331 111.777 73.0359C110.324 56.2157 95.8499 43.0056 78.2087 43.0056C62.6038 43.0056 49.477 53.3422 45.6491 67.3705C34.5143 69.6183 26.1458 79.228 26.1458 90.7418C26.1458 103.36 36.196 113.691 48.9233 114.552" stroke="#231815" stroke-width="2" stroke-linecap="round" stroke-linejoin="round"/>
<path fill-rule="evenodd" clip-rule="evenodd" d="M75.8448 107.693C75.8448 106.12 77.1195 104.846 78.692 104.846C80.2644 104.846 81.5392 106.12 81.5392 107.693V111.305L84.6652 109.499C86.0272 108.713 87.7687 109.179 88.5549 110.541C89.3411 111.904 88.8744 113.645 87.5124 114.432L84.3862 116.237L87.5124 118.043C88.8744 118.829 89.3411 120.571 88.5549 121.933C87.7686 123.295 86.0272 123.762 84.6652 122.975L81.5392 121.17V124.782C81.5392 126.354 80.2644 127.629 78.692 127.629C77.1195 127.629 75.8448 126.354 75.8448 124.782V121.17L72.7186 122.975C71.3566 123.762 69.6152 123.295 68.8289 121.933C68.0427 120.571 68.5094 118.829 69.8714 118.043L72.9975 116.237L69.8714 114.432C68.5094 113.645 68.0427 111.904 68.8289 110.542C69.6151 109.179 71.3566 108.713 72.7186 109.499L75.8448 111.305V107.693Z" fill="#231815"/>
</svg>
