<svg width="158" height="157" viewBox="0 0 158 157" fill="none" xmlns="http://www.w3.org/2000/svg">
<path fill-rule="evenodd" clip-rule="evenodd" d="M111.005 69.0841C111.005 69.0841 111.605 72.1303 111.809 72.1595C122.852 73.7347 131.138 80.1777 131.138 91.6588C131.138 104.242 120.94 114.442 108.36 114.442H49.7894C37.2097 114.442 27.0118 104.242 27.0118 91.6588C27.0118 80.1777 35.5021 70.6801 46.5451 69.1049C46.7497 69.0758 46.9502 69.0695 47.1448 69.0841C50.0786 54.1241 63.259 42.8376 79.0748 42.8376C94.8906 42.8376 108.071 54.1241 111.005 69.0841Z" fill="#F3F3F3"/>
<path d="M108.36 114.442H109.7C121.54 114.442 131.138 105.092 131.138 93.5574C131.138 82.9957 123.09 74.2651 112.643 72.8679C111.19 56.0478 96.716 42.8376 79.0748 42.8376C63.4699 42.8376 50.3431 53.1742 46.5152 67.2026C35.3804 69.4503 27.0118 79.06 27.0118 90.5739C27.0118 103.192 37.0621 113.523 49.7894 114.384" stroke="#231815" stroke-width="2" stroke-linecap="round" stroke-linejoin="round"/>
<path fill-rule="evenodd" clip-rule="evenodd" d="M88.4006 122.781C86.8443 121.882 86.4325 119.682 87.4808 117.865L95.0733 104.711C96.1216 102.895 98.2331 102.152 99.7894 103.05C101.346 103.949 101.758 106.15 100.709 107.966L93.1168 121.12C92.0684 122.936 89.957 123.68 88.4006 122.781Z" fill="#231815"/>
<path d="M85.5202 108.542C85.3861 108.153 85.0534 107.871 84.6576 107.813L72.5495 106.017L78.1041 93.2269C78.2525 92.8826 78.2231 92.4832 78.0235 92.1661C77.8249 91.8499 77.4836 91.6587 77.1184 91.6587H60.2092C59.628 91.6587 59.1515 92.1334 59.1308 92.7318L58.3522 115.462C58.3325 116.03 58.7316 116.522 59.2769 116.603L67.6949 117.853L56.4319 138.828C56.168 139.322 56.3021 139.94 56.7449 140.271C56.9357 140.412 57.1559 140.48 57.3761 140.48C57.6684 140.48 57.9584 140.357 58.17 140.12L85.2988 109.668C85.5692 109.364 85.6542 108.931 85.5202 108.542Z" fill="#FFB900"/>
</svg>
