<svg width="157" height="157" viewBox="0 0 157 157" fill="none" xmlns="http://www.w3.org/2000/svg">
<path fill-rule="evenodd" clip-rule="evenodd" d="M110.288 69.0841C110.288 69.0841 110.888 72.1303 111.093 72.1595C122.136 73.7347 130.421 80.1777 130.421 91.6588C130.421 104.242 120.223 114.442 107.644 114.442H49.0728C36.4931 114.442 26.2953 104.242 26.2953 91.6588C26.2953 80.1777 34.7855 70.6801 45.8286 69.1049C46.0332 69.0758 46.2336 69.0695 46.4282 69.0841C49.362 54.1241 62.5424 42.8376 78.3583 42.8376C94.1741 42.8376 107.354 54.1241 110.288 69.0841Z" fill="#F3F3F3"/>
<path d="M107.644 114.442H108.984C120.823 114.442 130.421 105.092 130.421 93.5574C130.421 82.9957 122.374 74.2651 111.926 72.8679C110.474 56.0478 95.9995 42.8376 78.3583 42.8376C62.7533 42.8376 49.6265 53.1742 45.7987 67.2026C34.6638 69.4503 26.2953 79.06 26.2953 90.5739C26.2953 103.192 36.3455 113.523 49.0728 114.384" stroke="#231815" stroke-width="2" stroke-linecap="round" stroke-linejoin="round"/>
<path d="M55.5807 98.1682H92.0147C93.6473 98.1682 95.1718 98.9842 96.0772 100.343V100.343C97.1701 101.982 97.1701 104.118 96.0772 105.758V105.758C95.1718 107.116 93.6473 107.932 92.0147 107.932H67.9557C66.3231 107.932 64.7986 108.748 63.8932 110.107V110.107C62.8004 111.747 62.8004 113.883 63.8932 115.522V115.522C64.7986 116.881 66.3231 117.697 67.9557 117.697H85.5069C87.1394 117.697 88.6639 118.513 89.5693 119.871V119.871C90.6622 121.511 90.6622 123.647 89.5693 125.286V125.286C88.6639 126.645 87.1394 127.461 85.5069 127.461H74.4636C72.831 127.461 71.3065 128.277 70.4011 129.635V129.635C69.3082 131.275 69.3082 133.411 70.4011 135.051V135.051C71.3065 136.409 72.831 137.225 74.4636 137.225H81.6122" stroke="#231815" stroke-width="2" stroke-linecap="round" stroke-linejoin="round"/>
</svg>
