<svg width="158" height="157" viewBox="0 0 158 157" fill="none" xmlns="http://www.w3.org/2000/svg">
<path fill-rule="evenodd" clip-rule="evenodd" d="M111.005 69.2521C111.005 69.2521 111.605 72.2983 111.809 72.3275C122.852 73.9026 131.138 80.3457 131.138 91.8268C131.138 104.41 120.94 114.61 108.36 114.61H49.7894C37.2097 114.61 27.0118 104.41 27.0118 91.8268C27.0118 80.3457 35.5021 70.848 46.5451 69.2729C46.7497 69.2437 46.9502 69.2375 47.1448 69.2521C50.0786 54.2921 63.259 43.0056 79.0748 43.0056C94.8906 43.0056 108.071 54.2921 111.005 69.2521Z" fill="#F3F3F3"/>
<path d="M108.36 114.61H109.7C121.54 114.61 131.138 105.26 131.138 93.7254C131.138 83.1636 123.09 74.4331 112.643 73.0359C111.19 56.2157 96.716 43.0056 79.0748 43.0056C63.4699 43.0056 50.3431 53.3422 46.5152 67.3705C35.3804 69.6183 27.0118 79.228 27.0118 90.7418C27.0118 103.36 37.0621 113.691 49.7894 114.552" stroke="#231815" stroke-width="2" stroke-linecap="round" stroke-linejoin="round"/>
<path fill-rule="evenodd" clip-rule="evenodd" d="M69.3129 95.0814C69.3129 89.6887 73.6834 85.3171 79.0747 85.3171C84.466 85.3171 88.8365 89.6887 88.8365 95.0814V96.7087C88.8365 103 83.7376 108.1 77.4477 108.1H56.2971C54.5 108.1 53.0432 106.643 53.0432 104.846C53.0432 103.048 54.5 101.591 56.2971 101.591H77.4477C80.1434 101.591 82.3286 99.4051 82.3286 96.7087V95.0814C82.3286 93.2838 80.8718 91.8266 79.0747 91.8266C77.2776 91.8266 75.8208 93.2838 75.8208 95.0814V95.969C75.8208 97.7666 74.3639 99.2238 72.5668 99.2238C70.7697 99.2238 69.3129 97.7666 69.3129 95.969V95.0814ZM82.3286 135.766C82.3286 142.057 87.4276 147.157 93.7174 147.157C100.007 147.157 105.106 142.057 105.106 135.766V134.138C105.106 126.948 99.2788 121.119 92.0904 121.119H59.5511C57.754 121.119 56.2971 122.577 56.2971 124.374C56.2971 126.172 57.754 127.629 59.5511 127.629H92.0904C95.6846 127.629 98.5983 130.543 98.5983 134.138V135.766C98.5983 138.462 96.4131 140.648 93.7174 140.648C91.0218 140.648 88.8365 138.462 88.8365 135.766V134.138C88.8365 132.341 87.3797 130.884 85.5826 130.884C83.7855 130.884 82.3286 132.341 82.3286 134.138V135.766ZM62.805 111.355C61.0079 111.355 59.5511 112.812 59.5511 114.61C59.5511 116.407 61.0079 117.865 62.805 117.865H95.3444C97.1415 117.865 98.5983 116.407 98.5983 114.61C98.5983 112.812 97.1415 111.355 95.3444 111.355H62.805Z" fill="#231815"/>
</svg>
